<?xml version="1.0" encoding="utf-8"?>
<!-- Generator: Adobe Illustrator 19.0.0, SVG Export Plug-In . SVG Version: 6.00 Build 0)  -->
<svg version="1.1" id="Layer_1" xmlns="http://www.w3.org/2000/svg" xmlns:xlink="http://www.w3.org/1999/xlink" x="0px" y="0px"
	 viewBox="0 0 142.4 142.1" style="enable-background:new 0 0 142.4 142.1;" xml:space="preserve">
<style type="text/css">
	.st0{fill:#EE2A7B;}
	.st1{fill:#9F3F97;}
	.st2{fill:#F8A147;}
	.st3{fill:#FCFBF8;}
	.st4{fill:#F17BB0;}
	.st5{fill:#B85DA4;}
	.st6{fill:#F496BF;}
	.st7{fill:#F499C1;}
	.st8{fill:#E658A0;}
	.st9{fill:#F5A3C7;}
	.st10{fill:#F49CC3;}
	.st11{fill:#FCB973;}
	.st12{fill:#F9D1A7;}
	.st13{fill:#D6633B;}
	.st14{fill:#5D2B1D;}
	.st15{fill:#070507;}
</style>
<g id="XMLID_154_">
	<g id="XMLID_294_">
		<path id="XMLID_17_" class="st0" d="M72.8,139.6c-7,0-14,0-21.1,0c-6.9,0-13.9,0-20.8,0c-18.4,0-27.2-8.6-27.8-27.1
			c-0.2-5.7,0-11.5,0.1-17.1c0.1-2.6,0.1-5.1,0.2-7.7c0-1.8-0.1-3.7-0.1-5.5C3.3,78,3.3,73.7,3.1,69.5c-0.3-6.6,2.5-11,8.3-12.9
			l0.5-18.5c-0.1-1.2-0.2-2.4-0.2-3.5c-0.3-5.9-0.6-11-5.8-14.7C0.6,16.3,2.9,9.2,3.7,6.5c0.6-1.8,2.1-4,5.9-4
			c0.9,0,1.8,0.1,2.7,0.2c0.7,0.1,1.3,0.2,1.8,0.2c6.4-0.1,12.6-0.1,17.3-0.1l15.8,0c4.4,0,8.9,0,13.3,0l0.3,0
			c14.5,0,25.5,6.9,32.7,20.6c1.4,2.6,2.7,5.3,4,7.9c4.8,9.8,9.3,19.1,17.8,26l0.2,0.2c0.9,0.7,2.1,1.7,2.6,1.7c0,0,0.5-0.1,1.6-1.4
			c2.1-2.5,4.9-3.9,8-3.9c2.4,0,4.9,0.8,7.2,2.4c3.2,2.2,6.6,6.3,3.9,13.6c-1.9,5.4-1.2,11,0,17.7c2.8,16.1,0.1,29.9-7.5,39
			c-7.1,8.4-18,12.8-32.5,12.9C91.1,139.6,82.9,139.6,72.8,139.6z"/>
		<path id="XMLID_14_" d="M9.6,5c1.5,0,3.2,0.4,4.6,0.4c0,0,0,0,0.1,0c5.7-0.1,11.5-0.1,17.2-0.1c5.3,0,10.5,0,15.8,0
			c4.4,0,8.9,0,13.3,0c0.1,0,0.2,0,0.3,0c14.2,0,24.1,7,30.5,19.2c6.4,12.2,11,25.5,22.4,34.7c1.7,1.4,3,2.5,4.3,2.5
			c1,0,2.1-0.7,3.6-2.3c1.7-2.1,3.9-3,6.1-3c1.9,0,4,0.7,5.8,2c3.8,2.5,4.6,6.1,3,10.7c-2.2,6.2-1.3,12.5-0.2,19
			c4.3,25-4,48.8-37.5,49c-8.7,0.1-17.3,0.1-26,0.1c-14,0-27.9-0.1-41.9-0.1c-17,0-24.7-7.3-25.3-24.6C5.4,104.2,5.8,96,6,87.7
			c-0.1-6.1-0.1-12.3-0.4-18.4c-0.3-6.1,2.4-9.6,8.3-10.8c0.2-6.8,0.4-13.7,0.5-20.5c-0.7-7.3,0.3-14.9-7.2-20.1
			C3.8,15.5,5,10.6,6.1,7.3C6.7,5.4,8,5,9.6,5 M9.6,0C3.8,0,1.9,4,1.3,5.8C0.4,8.6-2.3,17.3,4.3,22c4,2.8,4.4,6.5,4.8,12.8
			c0.1,1.1,0.1,2.3,0.2,3.5l-0.3,10l-0.2,6.7c-5.8,2.6-8.7,7.7-8.4,14.7c0.2,4.2,0.3,8.5,0.3,12.6c0,1.9,0,3.7,0.1,5.6
			c0,2.5-0.1,5.1-0.2,7.6c-0.1,5.6-0.3,11.5-0.1,17.3C1.3,132.4,11.2,142,31,142c7,0,13.9,0,20.9,0c7,0,14,0,21,0
			c10,0,18.3,0,26-0.1c15.3-0.1,26.8-4.7,34.4-13.8c8.1-9.7,10.9-24.3,8-41.1c-1.1-6.4-1.8-11.6-0.1-16.5c3.3-9.3-1.6-14.4-4.9-16.5
			c-2.7-1.8-5.7-2.8-8.6-2.8c-3.8,0-7.3,1.7-9.9,4.7c-0.3-0.2-0.5-0.4-0.7-0.6l-0.2-0.2c-8.1-6.5-12.4-15.6-17.1-25.1
			c-1.3-2.6-2.6-5.3-4-8C88.1,7.7,76.3,0.3,60.8,0.3l-0.4,0c-3.8,0-8,0-13.2,0c-2.6,0-5.3,0-7.9,0c-2.6,0-5.3,0-7.9,0
			c-4.7,0-10.9,0-17.3,0.1c0,0,0,0,0,0c-0.4,0-1-0.1-1.5-0.2C11.7,0.1,10.7,0,9.6,0L9.6,0z"/>
	</g>
	<g id="XMLID_3_">
		<path id="XMLID_412_" class="st1" d="M14.4,38c-0.7-7.3,0.3-14.9-7.2-20.1C3.8,15.5,5,10.6,6.1,7.3c1.1-3.6,5.3-1.8,8.1-1.9
			c15.4-0.2,30.9,0,46.3-0.1c14.4-0.1,24.4,6.9,30.8,19.2c6.4,12.2,11,25.5,22.4,34.7c3.1,2.5,4.7,4,7.9,0.2c3.3-3.8,7.9-3.7,12-1
			c3.8,2.5,4.6,6.1,3,10.7c-2.2,6.2-1.3,12.5-0.2,19c4.3,25-4,48.8-37.5,49c-22.6,0.2-45.3,0-67.9,0c-17,0-24.7-7.3-25.3-24.6
			C5.4,104.2,5.8,96,6,87.7c12.2,0.5,24.4,1.4,36.6,0.9c6.4-0.2,14,1.2,16.5-6.9c2.3-7.8,2.1-15.7-5.6-21.2
			c-1.9-2.9-2.8-6.2-2.5-9.6c0.8-9.1-3.4-13.3-12.4-12.9c-2.5,0.2-5.1,0.3-7.6,0C25.4,37,19.9,41.4,14.4,38z"/>
		<path id="XMLID_411_" class="st2" d="M30.3,34.5c2.7,0,5.5,0,8.2,0c2.2,1.8,3.8,3.9,3.4,6.9c-0.1,2.5,0.6,4.9,0.9,7.4
			C42.7,51,43,53,45.1,54.3c1.2,0.5,2.5,0.8,3.8,0.8c2.6,0.1,4.3,1.8,6.1,3.4c8,3.8,10.9,13,8.1,26.1c-1.8,8.5-8.6,7.2-14.6,7.2
			c-10.6,0-21.1-0.2-31.7,0.1C12.4,92,9,90.6,6,87.7c-0.1-6.1-0.1-12.3-0.4-18.4c-0.3-6.1,2.4-9.6,8.3-10.8c1.8-1.6,3.6-3.3,6.3-3.3
			c1.3-0.1,2.6-0.4,3.8-1c2-1.3,2.3-3.3,2.1-5.5c0.4-2.4,1-4.8,0.9-7.3C26.5,38.4,28.1,36.3,30.3,34.5z"/>
		<path id="XMLID_410_" class="st3" d="M22,58.6c-2.7,0-5.5-0.1-8.2-0.1c0.2-6.8,0.4-13.7,0.5-20.5c4.5-4.8,10.2-4.2,15.9-3.5
			c-0.1,2.6-0.1,5.2-0.2,7.7C23.8,45.9,27.1,54.3,22,58.6z"/>
		<path id="XMLID_409_" class="st4" d="M42.5,102.1c5.9-4.1,12.6-1.5,18.9-2c4-0.3,7.4-0.7,9.2-4.9c4.8-11.7,12.6-20.6,24.1-26.5
			C84.3,66.2,80,75.6,70.1,82.1c7.3-18.5-8.7-29.2-7.6-44.7c0.4-6.6-6.5-11.5-14.6-11.5c-7.9,0-15.7-0.1-23.6,0
			c-5.5,0.1-7.1-2.2-4-6.7c3.3-4.9,7.4-9.1,13.8-9.6c4.1-0.3,7.8-0.7,9,5.4c0.8,3.7,2.8,10.3,9.6,5.2C50.4,14,54.4,11.7,59,9.8
			c13.4-0.3,23.7,5.6,28.5,17.7c7.4,18.8,20.7,32.6,34.7,46.2c11.7,11.2,14.8,26.7,8.5,41.3c-6.1,14.1-18,18.6-32.5,18
			c-8.9-0.3-17.8-0.2-26.7-0.3c-1.5-1.3-3.7-2.1-4.6-3.9c-4.2-9.6-11.8-14.3-21.9-15.7c-1.8-0.2-2.9-1.6-4.1-2.8
			c-0.1-2.9-1.2-6.1,1.8-8.3L42.5,102.1z"/>
		<path id="XMLID_408_" class="st5" d="M36.8,132.6c-20.7,1-24.7-1.7-26.8-18.6c9.4-8.8,20.6-6.5,24.2,5.3
			C35.5,123.5,40.1,127.4,36.8,132.6z"/>
		<path id="XMLID_407_" class="st5" d="M67.7,132.6c-20.7,1.1-24.8-1.7-26.8-18.6C57.6,106.9,65.1,111.8,67.7,132.6z"/>
		<path id="XMLID_406_" class="st6" d="M36.8,132.6C32.1,113,27.3,109.7,10,114c0.1-4.1-1.5-8.4,1.8-12l0.6,0.7l-0.7-0.6
			c6.4-3.7,13.3-1.4,19.9-1.7c4.3-0.2,4.7,3.1,4.6,6.3c-0.2,7.5-0.2,14.9,4.1,21.7C42.8,132.2,40.3,133.1,36.8,132.6z"/>
		<path id="XMLID_405_" class="st3" d="M38.7,42.2c-0.1-2.6-0.1-5.2-0.2-7.7C53.9,33.7,55,34.6,55,49.4c0,3,0,6,0,9.1
			c-2.7,0-5.5,0.1-8.2,0.1C41.8,54.3,45,45.9,38.7,42.2z"/>
		<path id="XMLID_399_" class="st7" d="M67.7,132.6C63,113,58.3,109.7,40.9,114c0-1.2,0-2.5,0-3.7c22.8-0.2,22.8-0.2,30.6,22.3
			C70.2,132.6,69,132.6,67.7,132.6z"/>
		<path id="XMLID_398_" class="st8" d="M130.1,74.2c-4.3-3.3-8.8-5.4-5.8-11c1.1-1.9,3.4-2.6,5.4-1.5
			C135.7,65.1,131.6,69.2,130.1,74.2z"/>
		<path id="XMLID_397_" class="st9" d="M59,9.8c-2.1,3.5-4.2,6.9-6.3,10.4c-2.6-2.5-7.5-4.7-5.1-8.8C49.9,7.5,55.1,9.9,59,9.8z"/>
		<path id="XMLID_396_" class="st10" d="M20.1,10.4c-2.7,2.5-2.4,8.3-7.5,6.7c-1.9-0.6-3.4-3-2.5-5.1C12.2,6.8,16.6,10.9,20.1,10.4z
			"/>
		<path id="XMLID_390_" class="st11" d="M9.7,67.1c1.9-3.5,5.1-4.1,8.7-4.1c10.6,0,21.2,0.2,31.8,0c8.5-0.1,9.1,5.3,8.9,11.7
			c-0.2,6.1,1,13-8.6,13c-10.9,0-21.9,0-32.8,0c-5.5,0-8.2-2.7-8.1-8.2C13.3,75.3,13.3,71.2,9.7,67.1z"/>
		<path id="XMLID_385_" class="st12" d="M9.7,67.1c4.7,0.1,10.2-0.3,9.8,6.7c-0.3,6.2-5.5,5.5-9.8,5.7C6.9,75.3,6.9,71.2,9.7,67.1z"
			/>
		<path id="XMLID_380_" class="st13" d="M22,58.6c2.1-5.8-5.5-16.4,8.1-16.4c0,2.8-0.1,5.7-0.1,8.5c-2.4,2-1.1,5.8-3.7,7.8
			C24.9,58.6,23.5,58.6,22,58.6z"/>
		<path id="XMLID_370_" class="st13" d="M38.7,42.2c13.7,0,6,10.7,8.1,16.4c-1.4,0-2.9,0-4.3-0.1c-2.6-2-1.3-5.8-3.7-7.8
			C38.8,47.9,38.7,45.1,38.7,42.2z"/>
		<path id="XMLID_369_" class="st14" d="M26.3,58.6c0.6-2.9-2.2-7.4,3.7-7.8C29.5,53.7,33.1,58.6,26.3,58.6z"/>
		<path id="XMLID_368_" class="st14" d="M38.8,50.8c5.9,0.4,3.1,4.9,3.7,7.8C35.8,58.6,39.3,53.7,38.8,50.8z"/>
		<path id="XMLID_367_" class="st5" d="M42.5,102.1c2.2,0.3,5-0.2,5.5,2.9c0.2,1.5-1,2.7-2.4,2.4c-3.2-0.5-2.7-3.3-2.9-5.5
			C42.7,101.9,42.5,102.1,42.5,102.1z"/>
		<path id="XMLID_366_" class="st5" d="M55.8,107.5c-1.7-0.2-2.3-1.4-1.9-2.8c0.2-0.7,1.2-1.7,2-1.8c1.5-0.2,2.6,0.7,2.6,2.3
			C58.4,106.7,57.3,107.5,55.8,107.5z"/>
		<path id="XMLID_365_" class="st5" d="M27.7,105.2c-0.2,1.5-1.1,2.5-2.6,2.5c-1.5,0-2.5-1-2.5-2.5c0-1.5,1-2.5,2.5-2.5
			C26.7,102.6,27.6,103.6,27.7,105.2z"/>
		<path id="XMLID_364_" class="st5" d="M11.7,102.1c2.2,0.1,5-0.7,5.2,2.7c0.1,0.8-1.7,2.5-2.5,2.5C11.1,107,11.9,104.1,11.7,102.1
			C11.8,102,11.7,102.1,11.7,102.1z"/>
		<path id="XMLID_363_" class="st12" d="M44.5,79.3c-4.1-0.1-7.6-1.2-7.6-6.1c0-4.9,3.4-6.1,7.6-6.1c4.5,0,8.4,1,8.1,6.6
			C52.2,78.7,48.4,79.3,44.5,79.3z"/>
		<path id="XMLID_325_" class="st15" d="M28.1,69c7.5-2.7,6,2.7,6.3,6.3c0.2,4.3,0.1,8.2-6,8.3c-5.9,0.1-6.7-3.4-6.3-8
			C22.4,71.6,20.5,65.3,28.1,69z"/>
	</g>
</g>
</svg>
